<svg xmlns="http://www.w3.org/2000/svg" width="120" height="40" viewBox="0 0 120 40">
  <rect width="120" height="40" rx="5" fill="#000"/>
  <rect x=".4" y=".4" width="119.2" height="39.2" rx="4.6" fill="none" stroke="#a6a6a6"/>
  <path fill="#fff" d="M22.4 20.2c0-2.4 2-3.6 2.1-3.7-1.2-1.7-3-1.9-3.6-1.9-1.5-.2-3 .9-3.8.9s-2-.9-3.3-.9c-1.7 0-3.3 1-4.2 2.5-1.8 3.1-.5 7.7 1.3 10.2.9 1.2 1.9 2.6 3.3 2.5 1.3-.1 1.8-.8 3.4-.8s2 .8 3.4.8c1.4 0 2.3-1.2 3.2-2.4.9-1.4 1.3-2.7 1.3-2.8-.1 0-2.5-1-2.5-3.8zm-2.4-7c.7-.9 1.2-2.1 1.1-3.3-1 .1-2.3.7-3.1 1.6-.7.8-1.3 2-1.1 3.2 1.2.1 2.4-.6 3.1-1.5z"/>
  <text x="36" y="14" fill="#fff" font-size="8" font-family="Arial">Download on the</text>
  <text x="36" y="30" fill="#fff" font-size="14" font-family="Arial" font-weight="700">App Store</text>
</svg>
